<svg xmlns="http://www.w3.org/2000/svg" viewBox="0 0 1000 1000">
  <path fill="#016FD0" d="M58.7,358.7h71.3l16.2-39.2h35.9l16.2,39.2h140.1v-30l12.5,30.1h72.9l12.5-30.3v30.3h292.9l35.4-36.7l33.2,36.7l151.1,0.1l-98.3-110.2l98.3-108.6H753.1l-34.5,35.9l-32.2-35.9H460.8l-23.5,53.9l-24.1-53.9H299.1v29.1l-11.7-29.1h-63.5l-84.1,189.8H58.7L58.7,358.7L58.7,358.7z M86.7,331.1l-28-68.8l-27.9,68.8H86.7L86.7,331.1z M156.3,331.1l-27.5-68.8l-27.9,68.8H156.3L156.3,331.1z M218.7,331.1h56.3v-51.7h31.3v-27.1h-31.3v-29.9h35.4l30.8,69.5l31.7-69.5h34.6v108.7h-27.9v-80l-37.1,80h-19.6l-37.1-80v80h-67.1V331.1L218.7,331.1z M444.6,331.1h87.5v-27.1h-59.6v-14.6h58.3v-26.3h-58.3v-13.7h59.6v-27.1h-87.5V331.1L444.6,331.1z M544.6,331.1h28.3l40-46.2l39.6,46.2h28.7l-54.1-60.8l54.1-47.9h-28.3l-40,44.6l-39.2-44.6h-29.1l53.7,60.4L544.6,331.1L544.6,331.1z M692.9,331.1h87.5v-27.1h-59.6v-14.6h58.3v-26.3h-58.3v-13.7h59.6v-27.1h-87.5V331.1L692.9,331.1z M58.7,860.1h83.3l16.2-39.2h35.9l16.2,39.2h140.1v-36.3l20.8,36.3h108.3v-77.1h1.7l67.5,77.1h87.9l-71.7-77.9l71.7-77.9h-88.3l-67.1,76.7v-76.7H293.7l-16.7,38.3l-16.7-38.3H152.8v33.7l-15-33.7H58.7L58.7,860.1L58.7,860.1z M86.7,832.4l-28-68.8l-27.9,68.8H86.7L86.7,832.4z M156.3,832.4l-27.5-68.8l-27.9,68.8H156.3L156.3,832.4z M218.7,832.4h56.3v-51.7h31.3v-27.1h-31.3v-29.9h35.4l30.8,69.5l31.7-69.5h34.6v108.7h-27.9v-80l-37.1,80h-19.6l-37.1-80v80h-67.1V832.4L218.7,832.4z M444.6,832.4h87.5v-27.1h-59.6v-14.6h58.3v-26.3h-58.3v-13.7h59.6v-27.1h-87.5V832.4L444.6,832.4z M544.6,832.4h28.3l40-46.2l39.6,46.2h28.7l-54.1-60.8l54.1-47.9h-28.3l-40,44.6l-39.2-44.6h-29.1l53.7,60.4L544.6,832.4L544.6,832.4z M692.9,832.4h87.5v-27.1h-59.6v-14.6h58.3v-26.3h-58.3v-13.7h59.6v-27.1h-87.5V832.4L692.9,832.4z"/>
</svg> 