<svg xmlns="http://www.w3.org/2000/svg" viewBox="0 0 1000 618">
  <path fill="#FF5F00" d="M363,253.2c0,99.1,46.3,187.5,118.4,244.8c72.1-57.3,118.4-145.7,118.4-244.8S553.5,65.7,481.4,8.4C409.3,65.7,363,154.1,363,253.2z"/>
  <path fill="#EB001B" d="M363,253.2c0,99.1,46.3,187.5,118.4,244.8c-72.1-57.3-118.4-145.7-118.4-244.8S409.3,65.7,481.4,8.4C409.3,65.7,363,154.1,363,253.2z"/>
  <path fill="#F79E1B" d="M599.8,498c72.1-57.3,118.4-145.7,118.4-244.8S671.9,65.7,599.8,8.4c72.1,57.3,118.4,145.7,118.4,244.8S671.9,440.7,599.8,498z"/>
</svg> 