<svg xmlns="http://www.w3.org/2000/svg" viewBox="0 0 1000 324.68">
  <path fill="#00579f" d="M651.17,0c-70.93,0-134.32,36.9-134.32,105.21,0,77.74,114.8,82.59,114.8,122.29,0,16.42-18.71,31.08-50.71,31.08-45.58,0-79.33-20.57-79.33-20.57l-14.31,66.59s39.27,17.41,91.58,17.41c77.3,0,138.45-38.29,138.45-107.09,0-81.87-115.4-87.6-115.4-123.99,0-12.91,15.51-27.08,47.1-27.08,35.89,0,65.14,14.82,65.14,14.82l14.12-65.14S696.34,0,651.17,0"/>
  <path fill="#00579f" d="M217.63,5.42L134.7,319.27h81.66l82.93-313.84h-81.66Z"/>
  <path fill="#00579f" d="M942.35,5.42c-19.21,0-35.1,10.33-42.26,26.07L781.09,319.27h81.66l16.52-47.6h101.3l9.59,47.6h71.84L1000,5.42h-57.65Zm13.81,87.6l23.86,119.48h-65.64l41.77-119.48Z"/>
  <path fill="#00579f" d="M399.52,5.42,335.88,220.9l-7.69-39.27c-13.31-44.18-54.84-92.08-101.3-115.9l65.14,253.54h82.93L480.68,5.42h-81.16Z"/>
  <path fill="#faa61a" d="M142.39,5.42H4.76L4.26,12.1c107.09,26.57,177.92,90.69,207.04,167.58L185.15,31.49c-3.85-15.01-15.01-26.07-42.76-26.07"/>
</svg> 